<mxfile host="app.diagrams.net" modified="2024-01-10T00:49:47.300Z" agent="Mozilla/5.0 (Windows NT 10.0; Win64; x64) AppleWebKit/537.36 (KHTML, like Gecko) Chrome/120.0.0.0 Safari/537.36 Edg/120.0.0.0" etag="PnXzjYGHdFafBk5mRKBa" version="21.6.7" type="github">
  <diagram name="Page-1" id="XXlY9DdAFKopAWAQCHrl">
    <mxGraphModel dx="996" dy="1673" grid="1" gridSize="10" guides="1" tooltips="1" connect="1" arrows="1" fold="1" page="1" pageScale="1" pageWidth="850" pageHeight="1100" math="0" shadow="0">
      <root>
        <mxCell id="0" />
        <mxCell id="1" parent="0" />
        <mxCell id="IFBxWm9vfi55neEvGCjK-1" value="" style="whiteSpace=wrap;html=1;aspect=fixed;" vertex="1" parent="1">
          <mxGeometry x="40" width="800" height="800" as="geometry" />
        </mxCell>
        <mxCell id="IFBxWm9vfi55neEvGCjK-3" value="" style="image;aspect=fixed;perimeter=ellipsePerimeter;html=1;align=center;shadow=0;dashed=0;spacingTop=3;image=img/lib/active_directory/internet_globe.svg;" vertex="1" parent="1">
          <mxGeometry x="385" y="-150" width="80" height="80" as="geometry" />
        </mxCell>
        <mxCell id="IFBxWm9vfi55neEvGCjK-8" value="" style="sketch=0;outlineConnect=0;fontColor=#232F3E;gradientColor=none;fillColor=#232F3D;strokeColor=none;dashed=0;verticalLabelPosition=bottom;verticalAlign=top;align=center;html=1;fontSize=12;fontStyle=0;aspect=fixed;pointerEvents=1;shape=mxgraph.aws4.servers;" vertex="1" parent="1">
          <mxGeometry x="385" y="30" width="80" height="80" as="geometry" />
        </mxCell>
        <mxCell id="IFBxWm9vfi55neEvGCjK-9" value="" style="outlineConnect=0;dashed=0;verticalLabelPosition=bottom;verticalAlign=top;align=center;html=1;shape=mxgraph.aws3.classic_load_balancer;fillColor=#F58536;gradientColor=none;" vertex="1" parent="1">
          <mxGeometry x="385" y="160" width="80" height="80" as="geometry" />
        </mxCell>
        <mxCell id="IFBxWm9vfi55neEvGCjK-10" value="" style="whiteSpace=wrap;html=1;aspect=fixed;" vertex="1" parent="1">
          <mxGeometry x="170" y="280" width="510" height="510" as="geometry" />
        </mxCell>
      </root>
    </mxGraphModel>
  </diagram>
</mxfile>
